<svg
          width="613"
          height="297"
          viewBox="0 0 813 297"
          fill="none"
          xmlns="http://www.w3.org/2000/svg"
        >
          <path
            d="M28.8559 204.414C27.5599 204.727 26.4285 204.658 25.462 204.205C24.5568 203.653 23.8751 202.96 23.4168 202.128C22.939 201.214 22.7042 200.242 22.7123 199.212C22.8015 198.161 23.1728 197.214 23.8263 196.37C23.809 193.46 23.3056 190.667 22.3163 187.991C21.3073 185.234 20.3082 182.518 19.3188 179.842C18.0919 176.537 17.1681 173.246 16.5473 169.966C15.907 166.606 15.4189 163.166 15.083 159.647C14.7471 156.127 14.4615 152.638 14.2261 149.18C13.9713 145.641 13.6354 142.122 13.2185 138.622C12.7429 134.879 12.1961 131.196 11.578 127.573C11.041 123.931 10.4132 120.267 9.69455 116.583C9.32274 115.044 9.5655 113.742 10.4228 112.678C11.2802 111.613 12.3164 110.934 13.5314 110.641C14.7465 110.347 15.9379 110.488 17.1056 111.063C18.2733 111.638 19.0026 112.705 19.2934 114.264C20.0512 118.11 20.7181 121.936 21.2943 125.74C21.9515 129.525 22.5472 133.41 23.0815 137.396C23.5376 141.058 23.8525 144.669 24.0264 148.227C24.2813 151.766 24.5962 155.377 24.9713 159.058C25.3072 162.578 25.8763 165.998 26.6786 169.319C27.4614 172.559 28.4662 175.832 29.6932 179.136C30.5037 181.426 31.2737 183.726 32.0032 186.036C32.8137 188.327 33.3407 190.686 33.5842 193.113C39.6986 191.807 45.8521 190.664 52.0447 189.682C58.2178 188.619 64.3713 187.476 70.5052 186.251C72.0639 185.96 73.3349 186.253 74.3183 187.13C75.3828 187.987 76.0617 189.024 76.3553 190.239C76.6488 191.454 76.508 192.645 75.9328 193.813C75.4386 194.961 74.4122 195.68 72.8536 195.971C65.404 197.428 58.0061 198.744 50.6598 199.918C43.4142 201.154 36.1462 202.653 28.8559 204.414ZM110.064 125.899C111.354 126.273 112.359 127.059 113.077 128.257C113.795 129.455 113.886 130.719 113.35 132.049C112.029 135.454 111.263 139.026 111.052 142.763C110.921 146.481 110.609 150.157 110.115 153.791C109.599 157.688 108.892 161.503 107.993 165.235C107.176 168.947 106.246 172.73 105.205 176.582C105.141 177.026 105.026 177.439 104.862 177.822C104.758 178.104 104.675 178.467 104.61 178.912C105.248 180.129 105.329 181.353 104.854 182.582C104.441 183.711 103.716 184.614 102.68 185.293C100.729 191.766 98.7175 198.167 96.6461 204.497C94.6753 210.889 92.7142 217.321 90.7629 223.794C90.2856 225.366 89.4184 226.39 88.1615 226.865C86.9856 227.321 85.7929 227.352 84.5833 226.958C83.3932 226.646 82.4085 225.94 81.6289 224.843C80.8689 223.826 80.7276 222.532 81.2049 220.959C83.1981 214.305 85.2415 207.681 87.3352 201.089C89.4485 194.577 91.5017 187.994 93.4949 181.34C88.2646 175.659 83.1866 169.899 78.2608 164.059C73.3154 158.138 68.2988 152.277 63.211 146.477C62.1493 145.276 61.7245 144.049 61.9365 142.798C62.21 141.446 62.7643 140.369 63.5993 139.567C64.4958 138.665 65.5712 138.148 66.8253 138.016C68.1605 137.865 69.359 138.39 70.4207 139.591C74.8268 144.699 79.1924 149.817 83.5175 154.945C87.823 159.991 92.2095 165.019 96.6771 170.026C98.3435 163.794 99.6174 157.356 100.499 150.714C100.911 147.099 101.233 143.463 101.465 139.807C101.757 136.05 102.573 132.509 103.914 129.185C104.369 127.875 105.165 126.911 106.301 126.293C107.419 125.595 108.673 125.463 110.064 125.899ZM164.361 160.619C164.959 161.675 165.09 162.929 164.755 164.381C164.42 165.834 163.634 166.838 162.397 167.395C158.199 169.18 153.855 170.187 149.367 170.414C144.858 170.56 140.439 169.656 136.109 167.701C131.86 165.727 128.437 162.739 125.841 158.737C123.307 154.634 121.988 150.237 121.884 145.547C121.816 141.363 122.847 137.47 124.978 133.869C127.108 130.268 129.8 127.217 133.054 124.717C135.923 122.395 139.031 120.358 142.38 118.606C145.729 116.854 149.224 115.709 152.867 115.172C154.283 115.001 155.544 115.254 156.651 115.93C157.818 116.505 158.569 117.481 158.901 118.858C159.195 120.073 158.983 121.325 158.265 122.613C157.628 123.881 156.612 124.641 155.215 124.892C152.564 125.276 150.042 126.014 147.648 127.106C145.255 128.199 143.011 129.556 140.916 131.176C139.695 132.157 138.485 133.178 137.284 134.24C136.164 135.282 135.226 136.366 134.469 137.492C133.651 138.718 132.994 139.905 132.5 141.054C132.087 142.182 131.875 143.434 131.864 144.808C131.853 146.182 132.064 147.589 132.498 149.027C132.931 150.466 133.526 151.865 134.283 153.225C135.102 154.485 136.063 155.624 137.167 156.644C138.251 157.582 139.458 158.319 140.787 158.855C143.547 159.989 146.383 160.547 149.293 160.53C152.265 160.412 155.029 159.787 157.585 158.655C158.822 158.099 160.077 157.967 161.348 158.261C162.619 158.554 163.623 159.34 164.361 160.619ZM173.797 140.593C173.238 139.699 172.953 138.697 172.941 137.585C170.007 127.92 167.051 118.347 164.074 108.864C161.078 99.3002 158.76 89.5295 157.121 79.552C156.95 78.1358 157.163 76.8844 157.757 75.7977C158.414 74.6104 159.43 73.8504 160.807 73.5177C162.103 73.2046 163.395 73.4069 164.683 74.1245C165.951 74.7611 166.671 75.7875 166.842 77.2037C168.327 86.1896 170.359 94.9575 172.939 103.507C175.499 111.976 178.13 120.557 180.83 129.249C184.681 125.318 188.552 121.468 192.442 117.699C196.413 113.911 200.224 109.99 203.874 105.936C204.955 104.732 206.121 104.236 207.373 104.448C208.686 104.559 209.753 105.073 210.574 105.989C211.477 106.885 212.003 108.001 212.154 109.336C212.306 110.672 211.841 111.941 210.76 113.145C207.11 117.199 203.34 121.111 199.449 124.88C195.62 128.548 191.77 132.307 187.899 136.157C194.207 138.491 200.484 140.875 206.731 143.31C212.977 145.745 219.151 148.411 225.252 151.309C226.521 151.946 227.29 153.003 227.562 154.481C227.813 155.877 227.601 157.129 226.925 158.235C226.107 159.462 225.04 160.191 223.725 160.423C222.49 160.635 221.248 160.464 220 159.908C214.382 157.236 208.732 154.786 203.05 152.558C197.368 150.33 191.604 148.122 185.76 145.933C186.585 148.991 187.338 152.11 188.021 155.289C188.784 158.448 189.456 161.586 190.038 164.703C190.348 166.343 190.065 167.654 189.188 168.638C188.412 169.683 187.416 170.352 186.201 170.646C184.986 170.939 183.794 170.798 182.627 170.223C181.479 169.729 180.749 168.662 180.439 167.022C179.544 162.609 178.528 158.225 177.39 153.87C176.314 149.415 175.116 144.989 173.797 140.593ZM239.854 148.939C236.806 148.389 234.218 147.257 232.089 145.543C230.022 143.727 228.351 141.602 227.077 139.166C225.883 136.711 225.076 134.077 224.653 131.264C224.211 128.371 224.123 125.52 224.388 122.713C224.627 120.512 224.929 118.21 225.291 115.807C225.735 113.385 226.38 111.086 227.226 108.91C228.072 106.734 229.229 104.783 230.698 103.056C232.148 101.249 234.038 99.8487 236.371 98.8566C238.784 97.845 241.266 97.1168 243.816 96.6722C246.427 96.127 249.038 95.7535 251.647 95.5519C252.82 95.44 253.982 95.4593 255.133 95.6099C256.264 95.6795 257.405 95.7896 258.556 95.9402C258.344 94.7056 258.626 93.5659 259.402 92.521C260.259 91.4566 261.255 90.7874 262.389 90.5134C263.766 90.1807 264.977 90.4026 266.022 91.1789C267.128 91.8547 267.919 92.821 268.394 94.0779C269.699 97.7062 270.761 101.393 271.58 105.139C272.481 108.865 273.259 112.621 273.917 116.405C274.655 120.171 275.393 123.936 276.131 127.701C276.95 131.447 277.891 135.163 278.953 138.85C279.406 140.37 279.204 141.662 278.346 142.726C277.55 143.69 276.545 144.319 275.33 144.612C274.115 144.906 272.893 144.815 271.664 144.341C270.496 143.765 269.686 142.718 269.233 141.199C265.085 144.258 260.459 146.576 255.353 148.153C250.227 149.648 245.061 149.91 239.854 148.939ZM234.335 122.367C234.201 123.943 234.157 125.711 234.202 127.672C234.247 129.633 234.556 131.444 235.129 133.106C235.702 134.768 236.61 136.22 237.853 137.463C239.077 138.625 240.77 139.245 242.932 139.322C247.376 139.62 251.595 138.987 255.589 137.422C259.665 135.837 263.241 133.43 266.319 130.2C265.684 126.153 264.997 122.247 264.259 118.481C263.602 114.697 262.773 110.91 261.772 107.123C260.18 106.564 258.576 106.137 256.962 105.842C255.409 105.445 253.752 105.331 251.992 105.499C250.232 105.667 248.371 105.945 246.407 106.334C244.505 106.622 242.682 107.062 240.939 107.655C240.777 107.694 240.361 107.923 239.691 108.342C239.082 108.661 238.747 108.87 238.685 108.971C237.973 109.572 237.401 110.396 236.968 111.443C236.267 113.156 235.717 114.96 235.318 116.857C234.9 118.673 234.572 120.51 234.335 122.367ZM357.496 79.1105C359.035 78.7387 360.286 78.9508 361.25 79.7467C362.295 80.523 362.964 81.5187 363.258 82.7338C363.551 83.9488 363.42 85.1807 362.865 86.4294C362.37 87.5776 361.354 88.3376 359.815 88.7094C357.89 89.2601 355.946 89.7297 353.982 90.1184C352.08 90.4065 350.178 90.6945 348.276 90.9826C349.903 97.3623 351.327 103.791 352.549 110.268C353.852 116.726 354.74 123.242 355.214 129.814C355.384 131.23 354.9 132.419 353.76 133.38C352.621 134.341 351.395 134.766 350.082 134.655C348.607 134.582 347.449 134.048 346.608 133.051C345.868 132.115 345.453 130.929 345.363 129.494C344.848 123.103 343.887 116.819 342.481 110.643C341.155 104.448 339.658 98.2512 337.99 92.0531C334.794 92.3107 331.558 92.5781 328.281 92.8553C324.985 93.0515 321.749 93.3189 318.573 93.6575C317.157 93.8282 316.009 93.334 315.129 92.1749C314.148 90.9544 313.683 89.738 313.733 88.5257C313.805 87.0508 314.35 85.9333 315.366 85.1733C316.363 84.3324 317.53 83.8363 318.865 83.6852C321.636 83.4444 324.416 83.2442 327.207 83.0844C329.978 82.8436 332.789 82.5931 335.641 82.3327C335.462 81.9473 335.275 81.3496 335.079 80.5395C333.318 73.2493 331.536 66.0498 329.733 58.9411C328.011 51.8128 326.634 44.5155 325.602 37.0491C325.45 35.7139 325.662 34.4624 326.238 33.2947C326.894 32.1074 327.91 31.3474 329.288 31.0147C330.503 30.7212 331.754 30.9333 333.042 31.6509C334.411 32.349 335.171 33.3656 335.322 34.7008C336.39 42.6728 337.854 50.5064 339.713 58.2017C341.634 65.7964 343.624 73.5028 345.685 81.321C347.668 81.0133 349.651 80.7057 351.634 80.398C353.598 80.0094 355.552 79.5802 357.496 79.1105ZM379.111 117.483C378.82 113.438 378.629 109.455 378.539 105.533C378.51 101.51 378.229 97.5062 377.694 93.5202C377.099 89.6348 376.239 85.8989 375.115 82.3124C374.053 78.6254 373.386 74.8001 373.114 70.8364C372.963 69.5012 373.458 68.353 374.597 67.3919C375.818 66.4112 377.034 65.9459 378.246 65.9959C379.721 66.0683 380.839 66.6127 381.599 67.6294C382.44 68.6264 382.936 69.7926 383.087 71.1277C383.213 73.0691 383.511 75.0118 383.98 76.9559C384.531 78.8804 385.082 80.8049 385.632 82.7294C386.533 86.4555 387.19 90.2404 387.604 94.0839C388.057 98.0895 388.329 102.053 388.419 105.975C388.59 109.877 388.812 113.81 389.083 117.774C389.154 119.129 388.619 120.287 387.479 121.248C386.34 122.209 385.164 122.664 383.952 122.614C382.477 122.542 381.319 122.007 380.478 121.01C379.637 120.013 379.181 118.837 379.111 117.483ZM371.441 60.1815C370.834 60.1565 370.209 60.0505 369.563 59.8635C368.899 59.5954 368.376 59.2072 367.996 58.6989C367.597 58.1096 367.257 57.5915 366.978 57.1446C366.698 56.6978 366.48 56.1503 366.324 55.5023C366.148 54.7733 366.093 54.0149 366.16 53.2271C366.132 51.6908 366.525 50.4812 367.341 49.5984C367.547 49.0341 367.905 48.5619 368.413 48.1819C369.167 47.3996 370.111 46.8715 371.245 46.5976C372.36 46.2426 373.441 46.2815 374.488 46.7142C374.972 46.9404 375.465 47.2071 375.967 47.5142C376.451 47.7404 376.882 48.1076 377.262 48.616C377.522 48.9818 377.792 49.3882 378.071 49.8351C378.432 50.2624 378.63 50.7289 378.667 51.2344C378.723 51.821 378.769 52.3671 378.805 52.8727C378.842 53.3783 378.747 53.8727 378.521 54.356C378.253 55.0209 378.026 55.5042 377.842 55.8059C377.658 56.1076 377.331 56.5295 376.862 57.0715C376.616 57.4738 376.189 57.8342 375.58 58.1527C374.114 59.5357 372.734 60.212 371.441 60.1815ZM391.598 14.804C393.056 14.4517 394.308 14.6638 395.353 15.4401C396.397 16.2165 397.157 17.2331 397.633 18.49C400.302 25.9896 402.606 33.5772 404.546 41.253C406.486 48.9287 408.224 56.6533 409.759 64.4269C411.375 72.1809 412.829 79.974 414.121 87.8063C415.413 95.6385 416.696 103.43 417.968 111.182C418.139 112.598 417.886 113.859 417.21 114.965C416.635 116.133 415.659 116.883 414.282 117.216C413.067 117.509 411.816 117.297 410.528 116.58C409.259 115.943 408.499 114.927 408.248 113.53C406.975 105.779 405.693 97.9869 404.401 90.1546C403.19 82.3027 401.776 74.4998 400.16 66.7458C398.625 58.9723 396.888 51.2476 394.947 43.5719C393.007 35.8962 390.703 28.3085 388.034 20.8089C387.559 19.552 387.73 18.3104 388.548 17.0839C389.367 15.8575 390.383 15.0975 391.598 14.804ZM417.722 8.49288C419.18 8.14063 420.431 8.35268 421.476 9.12902C422.521 9.90537 423.281 10.922 423.756 12.1789C426.425 19.6785 428.73 27.2662 430.67 34.9419C432.61 42.6176 434.347 50.3422 435.883 58.1158C437.499 65.8698 438.953 73.6629 440.245 81.4952C441.537 89.3275 442.819 97.1192 444.092 104.871C444.262 106.287 444.01 107.548 443.334 108.654C442.759 109.822 441.783 110.572 440.405 110.905C439.19 111.198 437.939 110.986 436.651 110.269C435.383 109.632 434.623 108.615 434.371 107.219C433.099 99.4675 431.816 91.6758 430.524 83.8435C429.313 75.9917 427.9 68.1887 426.284 60.4348C424.749 52.6612 423.011 44.9365 421.071 37.2608C419.131 29.5851 416.826 21.9975 414.157 14.4979C413.682 13.2409 413.854 11.9993 414.672 10.7728C415.49 9.5464 416.507 8.78642 417.722 8.49288ZM462.525 89.6153C463.734 90.0089 464.779 90.7852 465.659 91.9443C466.539 93.1034 466.914 94.2988 466.783 95.5307C466.752 96.824 466.227 98.0225 465.208 99.1261C464.552 100.313 463.525 101.033 462.129 101.285C460.752 101.617 459.51 101.446 458.404 100.77C456.973 100.172 456.008 99.5483 455.508 98.8975C454.586 97.92 454.11 96.8349 454.079 95.6421C454.129 94.4298 454.501 93.311 455.197 92.2857C455.401 92.065 455.564 91.8541 455.687 91.6529C455.871 91.3512 456.106 91.0802 456.391 90.8399C457.041 90.3398 457.407 90.08 457.488 90.0604C457.65 90.0212 458.076 89.8326 458.766 89.4945C459.009 89.4358 459.302 89.4078 459.646 89.4105C459.97 89.3322 460.223 89.314 460.404 89.3559C461.072 89.2803 461.779 89.3668 462.525 89.6153ZM442.619 11.4797C442.247 9.94061 442.45 8.64865 443.226 7.60379C444.083 6.53936 445.079 5.87016 446.213 5.59619C447.428 5.30265 448.62 5.44348 449.787 6.01868C451.036 6.57431 451.846 7.62165 452.218 9.16071C453.51 14.5069 454.852 19.8838 456.244 25.2915C457.697 30.5985 458.989 35.9447 460.118 41.3301C461.329 46.6958 462.297 52.1203 463.021 57.6035C463.827 63.0671 464.217 68.5881 464.193 74.1664C464.16 75.8033 463.635 77.0017 462.619 77.7617C461.602 78.5217 460.447 78.8864 459.154 78.856C457.941 78.8059 456.813 78.3927 455.768 77.6164C454.703 76.759 454.188 75.5119 454.221 73.875C454.223 68.5593 453.85 63.2911 453.103 58.0705C452.337 52.7689 451.378 47.5567 450.226 42.434C449.136 37.2106 447.883 32.0264 446.469 26.8814C445.135 21.7168 443.852 16.5829 442.619 11.4797Z"
            fill="black"
          />
          <path
            d="M339.099 226.565C338.215 225.766 337.422 224.891 336.721 223.943C336.065 222.956 335.476 221.935 334.952 220.878C334.458 219.95 333.991 218.961 333.551 217.913C333.11 216.864 332.734 215.801 332.422 214.723C332.11 213.646 331.884 212.555 331.742 211.453C331.641 210.354 331.686 209.27 331.876 208.2C332.21 206.098 332.623 204.045 333.115 202.042C333.652 200.002 334.289 198.013 335.025 196.077C335.265 195.347 335.555 194.538 335.894 193.651C336.233 192.763 336.631 191.923 337.086 191.131C337.587 190.301 338.142 189.561 338.751 188.909C339.36 188.258 340.097 187.787 340.964 187.496C342.261 187.08 343.523 187.017 344.751 187.306C345.982 187.554 347.152 188.005 348.259 188.659C349.408 189.317 350.483 190.094 351.483 190.988C352.487 191.842 353.429 192.689 354.308 193.53C355.109 194.321 355.885 195.152 356.636 196.022C357.433 196.854 358.252 197.668 359.095 198.464C360.078 199.524 361.062 200.585 362.045 201.645C363.07 202.71 363.873 203.899 364.455 205.213C365.144 206.705 365.479 208.183 365.46 209.646C365.444 211.069 365.201 212.468 364.729 213.845C364.262 215.18 363.61 216.476 362.773 217.733C361.937 218.99 361.042 220.2 360.09 221.361C359.237 222.365 358.253 223.419 357.138 224.523C356.065 225.631 354.878 226.623 353.577 227.498C352.318 228.378 350.975 229.041 349.549 229.486C348.165 229.934 346.734 230.002 345.258 229.688C344.4 229.477 343.79 229.082 343.429 228.502C342.653 228.299 341.903 228.057 341.177 227.776C340.451 227.495 339.758 227.091 339.099 226.565ZM336.895 208.258C336.709 209.286 336.656 210.244 336.735 211.131C336.856 212.023 337.091 213.03 337.441 214.153C337.902 215.413 338.423 216.7 339.005 218.014C339.59 219.286 340.311 220.467 341.166 221.557C341.904 222.551 342.803 223.206 343.86 223.52C344.553 223.714 345.224 223.907 345.875 224.097C346.531 224.245 347.18 224.456 347.822 224.729C348.079 224.671 348.336 224.613 348.593 224.555C348.855 224.455 349.12 224.314 349.389 224.131C350.139 223.745 350.831 223.311 351.465 222.83C352.099 222.348 352.714 221.844 353.311 221.317C354.463 220.259 355.583 219.093 356.673 217.819C357.803 216.55 358.731 215.218 359.455 213.824C360.18 212.431 360.544 211.085 360.547 209.787C360.55 208.49 360.072 207.186 359.113 205.877C358.229 204.659 357.231 203.534 356.119 202.502C355.053 201.433 354.007 200.367 352.982 199.302C352.111 198.378 351.256 197.498 350.418 196.661C349.58 195.824 348.654 195.021 347.642 194.25C346.713 193.488 345.788 192.894 344.867 192.468C344.747 192.414 344.624 192.381 344.5 192.369C344.421 192.319 344.322 192.267 344.201 192.213L343.275 192.059C342.935 192.109 342.719 192.171 342.628 192.246C342.305 192.549 342.123 192.698 342.081 192.694C341.741 193.163 341.52 193.497 341.416 193.696C341.313 193.895 341.156 194.214 340.945 194.654C340.411 195.815 339.937 197.003 339.523 198.219C339.114 199.392 338.746 200.57 338.419 201.752C338.093 202.934 337.797 204.014 337.533 204.993C337.309 205.975 337.097 207.064 336.895 208.258ZM344.817 177.138C345.161 177.465 345.348 177.903 345.378 178.45C345.428 178.79 345.445 179.043 345.428 179.208C345.412 179.374 345.346 179.619 345.23 179.942L344.441 181.56C344.048 182.149 343.491 182.492 342.769 182.588C342.094 182.646 341.482 182.481 340.934 182.092C340.424 181.748 340.098 181.234 339.957 180.55C339.952 180.173 339.913 179.939 339.838 179.847C339.568 179.193 339.547 178.562 339.774 177.957C339.998 177.393 340.441 176.934 341.104 176.581C341.373 176.399 341.68 176.262 342.024 176.17C342.368 176.079 342.704 176.07 343.031 176.144C343.359 176.219 343.583 176.283 343.703 176.337C343.869 176.353 344.068 176.457 344.301 176.647C344.533 176.838 344.705 177.001 344.817 177.138ZM353.226 178.474C353.774 178.864 354.096 179.419 354.192 180.14C354.292 180.82 354.147 181.434 353.758 181.982C353.518 182.293 353.261 182.56 352.987 182.784C352.577 183.121 352.136 183.349 351.663 183.47C351.062 183.619 350.484 183.541 349.928 183.235C349.418 182.891 349.021 182.454 348.739 181.923C348.531 181.484 348.407 181.053 348.365 180.63C348.369 180.17 348.393 179.712 348.438 179.256C348.508 178.551 348.794 177.993 349.295 177.582C349.842 177.134 350.468 176.945 351.173 177.015C352.126 177.109 352.811 177.596 353.226 178.474ZM368.06 226.485C368.237 224.702 368.541 222.911 368.97 221.111C369.478 218.943 369.985 216.795 370.489 214.667C370.997 212.499 371.341 210.293 371.522 208.049C371.6 207.262 371.908 206.685 372.447 206.32C372.986 205.955 373.566 205.803 374.188 205.864C374.81 205.926 375.37 206.191 375.868 206.659C376.366 207.127 376.576 207.755 376.497 208.543C378.127 208.579 379.667 208.669 381.118 208.813C382.773 209.019 384.135 209.635 385.206 210.663C386.276 211.69 387.026 213 387.454 214.591C387.812 216.05 387.958 217.53 387.893 219.031C387.828 220.532 387.742 222.031 387.635 223.528C387.467 225.647 387.32 227.767 387.193 229.89C387.07 231.972 386.904 234.07 386.694 236.184C386.612 237.013 386.283 237.588 385.707 237.908C385.168 238.273 384.588 238.425 383.966 238.363C383.385 238.305 382.846 238.043 382.348 237.575C381.888 237.152 381.699 236.526 381.781 235.697C381.978 233.707 382.13 231.754 382.236 229.838C382.384 227.927 382.515 225.972 382.63 223.973C382.653 222.887 382.721 221.784 382.832 220.665C382.989 219.508 383.011 218.442 382.898 217.468C382.831 216.875 382.756 216.365 382.673 215.938C382.594 215.47 382.409 215.012 382.118 214.565C382.052 214.39 381.879 214.227 381.602 214.074C381.365 213.925 381.143 213.84 380.936 213.819C380.314 213.758 379.729 213.741 379.182 213.771C378.635 213.8 378.063 213.869 377.466 213.978C377.209 214.036 376.952 214.094 376.695 214.152C376.438 214.211 376.199 214.292 375.98 214.395C375.417 215.847 374.964 217.247 374.621 218.594C374.324 219.905 374.024 221.236 373.723 222.588C373.5 223.57 373.316 224.578 373.172 225.611C373.073 226.606 372.933 227.597 372.751 228.584C372.611 229.575 372.388 230.557 372.082 231.532C371.818 232.511 371.412 233.433 370.865 234.3C370.422 234.968 369.886 235.313 369.256 235.334C368.621 235.397 368.051 235.235 367.545 234.85C367.076 234.511 366.727 234.016 366.499 233.365C366.312 232.718 366.419 232.059 366.821 231.387C367.268 230.678 367.555 229.89 367.683 229.023C367.811 228.156 367.937 227.311 368.06 226.485ZM396.639 221.406C395.639 220.511 394.968 219.461 394.627 218.255C394.291 217.007 394.395 215.74 394.942 214.455C395.475 213.293 396.225 212.279 397.19 211.412C398.156 210.544 399.227 209.876 400.404 209.406C401.714 208.866 403.092 208.48 404.539 208.246C405.985 208.013 407.436 207.948 408.892 208.05C410.347 208.152 411.763 208.439 413.14 208.911C414.562 209.345 415.883 209.958 417.103 210.749C417.771 211.192 418.115 211.728 418.137 212.358C418.158 212.989 417.976 213.557 417.591 214.063C417.247 214.573 416.752 214.922 416.105 215.109C415.459 215.296 414.801 215.168 414.134 214.725C413.192 214.087 412.107 213.624 410.88 213.335C409.652 213.045 408.388 212.92 407.086 212.958C405.83 212.959 404.617 213.153 403.448 213.54C402.28 213.926 401.283 214.476 400.458 215.19C400.231 215.377 400.071 215.508 399.98 215.582C399.93 215.661 399.829 215.839 399.676 216.117L399.483 216.789C399.571 217.175 399.652 217.413 399.726 217.504C400.502 218.125 401.317 218.562 402.172 218.814C403.071 219.029 403.975 219.203 404.883 219.335C406.161 219.545 407.458 219.757 408.777 219.972C410.141 220.149 411.431 220.444 412.646 220.858C413.903 221.276 415.037 221.87 416.049 222.64C417.061 223.41 417.877 224.475 418.496 225.835C419.181 227.368 419.404 228.919 419.165 230.486C418.972 232.016 418.233 233.345 416.948 234.474C415.664 235.603 414.23 236.34 412.646 236.685C411.067 236.989 409.479 237.167 407.883 237.218C406.457 237.244 404.981 237.139 403.455 236.904C401.971 236.673 400.544 236.281 399.175 235.726C397.844 235.217 396.616 234.509 395.492 233.602C394.372 232.654 393.484 231.477 392.827 230.072C392.52 229.372 392.52 228.744 392.826 228.188C393.136 227.59 393.555 227.171 394.081 226.931C394.653 226.652 395.246 226.585 395.86 226.73C396.515 226.879 397.017 227.305 397.366 228.01C397.851 229.021 398.588 229.827 399.575 230.427C400.563 231.028 401.647 231.491 402.829 231.818C404.056 232.107 405.296 232.272 406.548 232.312C407.805 232.311 408.941 232.256 409.956 232.148C410.508 232.077 411.063 231.964 411.623 231.811C412.228 231.619 412.733 231.376 413.139 231.082C413.587 230.791 413.914 230.447 414.121 230.048C414.332 229.609 414.361 229.109 414.207 228.55C413.895 227.472 413.264 226.656 412.314 226.101C411.406 225.55 410.417 225.18 409.347 224.99C408.277 224.8 407.183 224.65 406.063 224.539C404.944 224.428 403.828 224.275 402.717 224.081C401.61 223.846 400.532 223.53 399.482 223.133C398.433 222.735 397.485 222.16 396.639 221.406ZM425.771 224.672C425.655 224.158 425.685 223.638 425.863 223.111C426.071 218.065 426.253 213.059 426.411 208.092C426.572 203.083 427.089 198.089 427.959 193.109C428.112 192.412 428.419 191.856 428.878 191.441C429.384 190.989 429.989 190.798 430.694 190.868C431.357 190.934 431.934 191.242 432.423 191.793C432.917 192.303 433.088 192.906 432.935 193.602C432.155 198.089 431.669 202.563 431.478 207.024C431.291 211.444 431.119 215.928 430.961 220.476C433.426 219.255 435.888 218.076 438.346 216.938C440.845 215.804 443.29 214.581 445.681 213.269C446.39 212.878 447.022 212.836 447.578 213.143C448.179 213.412 448.598 213.83 448.835 214.398C449.113 214.97 449.178 215.584 449.03 216.239C448.881 216.894 448.452 217.417 447.743 217.807C445.352 219.119 442.928 220.344 440.47 221.482C438.058 222.583 435.621 223.723 433.16 224.902C435.753 227.044 438.323 229.204 440.87 231.382C443.418 233.561 445.892 235.837 448.295 238.211C448.789 238.721 448.978 239.346 448.862 240.089C448.751 240.789 448.445 241.345 447.943 241.756C447.355 242.2 446.731 242.369 446.072 242.261C445.454 242.158 444.896 241.873 444.398 241.404C442.187 239.217 439.923 237.129 437.608 235.141C435.293 233.153 432.937 231.161 430.539 229.164C430.424 230.744 430.265 232.34 430.064 233.953C429.903 235.57 429.703 237.163 429.464 238.73C429.341 239.555 428.991 240.128 428.415 240.447C427.876 240.813 427.296 240.964 426.674 240.903C426.052 240.841 425.513 240.578 425.056 240.114C424.596 239.692 424.427 239.068 424.551 238.243C424.856 236.012 425.099 233.775 425.279 231.532C425.505 229.251 425.669 226.965 425.771 224.672ZM455.578 239.499C454.23 238.737 453.195 237.776 452.473 236.615C451.796 235.418 451.358 234.139 451.157 232.779C450.999 231.424 451.052 230.047 451.316 228.65C451.584 227.211 452.012 225.851 452.6 224.569C453.076 223.57 453.597 222.533 454.164 221.458C454.773 220.388 455.456 219.409 456.214 218.521C456.972 217.634 457.84 216.903 458.818 216.33C459.8 215.716 460.924 215.367 462.188 215.283C463.494 215.203 464.786 215.268 466.063 215.478C467.385 215.652 468.679 215.905 469.944 216.24C470.516 216.381 471.062 216.581 471.58 216.842C472.103 217.061 472.623 217.302 473.142 217.562C473.245 216.944 473.566 216.453 474.104 216.088C474.684 215.726 475.265 215.575 475.845 215.632C476.55 215.702 477.085 216.006 477.451 216.545C477.861 217.046 478.075 217.633 478.093 218.305C478.111 220.232 478.004 222.148 477.774 224.051C477.585 225.958 477.333 227.86 477.02 229.755C476.748 231.654 476.476 233.553 476.204 235.452C475.973 237.355 475.804 239.264 475.698 241.18C475.662 241.972 475.353 242.548 474.773 242.91C474.238 243.233 473.66 243.364 473.038 243.303C472.416 243.241 471.854 242.997 471.352 242.57C470.896 242.106 470.686 241.478 470.723 240.686C468.261 241.447 465.694 241.779 463.024 241.682C460.358 241.543 457.876 240.815 455.578 239.499ZM457.352 226.045C457.03 226.767 456.717 227.594 456.415 228.528C456.113 229.461 455.961 230.367 455.957 231.246C455.954 232.125 456.143 232.96 456.525 233.751C456.911 234.502 457.608 235.073 458.616 235.466C460.665 236.339 462.761 236.736 464.905 236.655C467.089 236.579 469.174 236.032 471.16 235.014C471.527 232.999 471.847 231.042 472.119 229.143C472.432 227.248 472.665 225.324 472.817 223.371C472.157 222.845 471.471 222.379 470.757 221.973C470.089 221.53 469.326 221.204 468.468 220.993C467.609 220.782 466.685 220.607 465.694 220.466C464.748 220.289 463.815 220.196 462.895 220.189C462.812 220.181 462.578 220.22 462.192 220.308C461.852 220.358 461.66 220.401 461.614 220.439C461.179 220.605 460.773 220.9 460.396 221.323C459.783 222.016 459.226 222.777 458.725 223.606C458.228 224.395 457.77 225.208 457.352 226.045ZM485.226 218.572C485.345 217.789 485.693 217.237 486.269 216.917C486.849 216.556 487.451 216.406 488.072 216.468C488.694 216.53 489.213 216.79 489.628 217.25C490.088 217.673 490.259 218.276 490.139 219.06C490.115 219.308 490.067 219.576 489.997 219.862C489.972 220.111 489.948 220.36 489.923 220.608C491.316 220.076 492.76 219.654 494.256 219.342C495.799 218.993 497.301 218.828 498.765 218.847C500.27 218.871 501.688 219.137 503.019 219.646C504.396 220.118 505.616 220.909 506.678 222.019C507.205 222.615 507.396 223.221 507.252 223.834C507.148 224.452 506.846 224.966 506.345 225.377C505.889 225.751 505.323 225.967 504.648 226.025C503.976 226.043 503.354 225.772 502.781 225.212C502.362 224.794 501.871 224.473 501.307 224.25C500.784 224.03 500.189 223.908 499.521 223.884C498.9 223.822 498.251 223.821 497.575 223.879C496.941 223.942 496.325 224.028 495.728 224.136C493.461 224.623 491.316 225.352 489.293 226.324C489.175 228.364 489.098 230.408 489.062 232.456C489.059 234.173 489.03 235.949 488.973 237.786C488.921 239.581 489.104 241.316 489.525 242.991C489.699 243.762 489.575 244.378 489.153 244.838C488.768 245.344 488.256 245.649 487.618 245.754C487.021 245.862 486.403 245.759 485.764 245.444C485.167 245.134 484.781 244.593 484.606 243.822C484.369 242.835 484.237 241.838 484.212 240.831C484.186 239.823 484.16 238.816 484.135 237.809C484.146 236.847 484.137 235.883 484.107 234.917C484.123 233.913 484.137 232.931 484.149 231.969C484.163 229.709 484.238 227.477 484.373 225.271C484.554 223.028 484.838 220.795 485.226 218.572ZM534.419 250.081C533.253 249.17 532.23 248.084 531.35 246.825C530.47 245.565 529.725 244.214 529.114 242.772C528.504 241.33 528.022 239.858 527.668 238.358C527.314 236.857 527.085 235.369 526.98 233.893C526.867 232.5 526.86 231.096 526.958 229.683C527.061 228.227 527.387 226.836 527.937 225.509C528.376 224.464 528.914 223.47 529.552 222.529C530.231 221.591 530.948 220.699 531.701 219.853C533.541 217.774 535.554 215.838 537.742 214.046C539.929 212.253 542.279 210.727 544.79 209.469C545.938 208.871 547.119 208.36 548.334 207.936C549.59 207.516 550.831 207.242 552.058 207.112C553.327 206.987 554.577 207.048 555.808 207.296C557.044 207.502 558.255 207.957 559.441 208.661C560.035 209.013 560.379 209.549 560.475 210.271C560.571 210.992 560.426 211.606 560.041 212.112C559.606 212.697 559.051 213.019 558.375 213.077C557.741 213.14 557.127 212.995 556.534 212.643C555.862 212.242 554.983 212.029 553.897 212.005C553.482 211.964 552.956 211.995 552.317 212.099C551.724 212.166 551.125 212.295 550.52 212.487C549.273 212.823 548.006 213.347 546.722 214.057C545.483 214.729 544.302 215.45 543.179 216.218C541.198 217.612 539.307 219.162 537.505 220.868C535.748 222.536 534.224 224.395 532.932 226.444C532.779 226.722 532.611 227.145 532.429 227.713C532.247 228.281 532.115 228.77 532.032 229.181C531.83 230.375 531.775 231.563 531.867 232.745C531.981 234.138 532.177 235.539 532.455 236.948C532.78 238.32 533.235 239.642 533.821 240.915C534.373 242.1 535.029 243.296 535.789 244.501C536.594 245.67 537.644 246.486 538.938 246.949C540.31 247.462 541.77 247.523 543.316 247.132C543.66 247.041 543.983 246.947 544.286 246.852C544.593 246.714 544.92 246.579 545.268 246.446C545.401 246.376 545.533 246.305 545.666 246.235C545.799 246.164 545.931 246.094 546.064 246.023C547.1 245.288 548.036 244.502 548.873 243.664C549.71 242.825 550.509 241.942 551.271 241.012C551.66 240.465 552.05 239.917 552.439 239.37C552.874 238.785 553.224 238.212 553.489 237.652C553.749 237.134 553.963 236.674 554.128 236.271C554.298 235.827 554.405 235.378 554.45 234.921C554.052 234.714 553.646 234.59 553.231 234.549C552.816 234.508 552.381 234.465 551.925 234.42C550.76 234.346 549.591 234.314 548.417 234.323C547.286 234.336 546.118 234.284 544.916 234.164C544.128 234.086 543.552 233.778 543.186 233.239C542.867 232.663 542.738 232.064 542.799 231.442C542.861 230.82 543.103 230.279 543.526 229.818C543.99 229.362 544.616 229.173 545.403 229.251C546.523 229.362 547.648 229.411 548.78 229.397C549.912 229.384 551.04 229.412 552.164 229.482C553.287 229.551 554.382 229.702 555.448 229.933C556.513 230.164 557.562 230.561 558.595 231.124C559.632 231.646 560.47 232.483 561.11 233.635C561.496 234.385 561.604 235.191 561.435 236.054C561.307 236.92 561.202 237.768 561.12 238.598C560.86 240.372 560.621 242.149 560.403 243.928C560.23 245.669 560.037 247.409 559.823 249.146C559.74 249.975 559.409 250.571 558.829 250.932C558.253 251.251 557.654 251.38 557.032 251.319C556.41 251.257 555.869 251.015 555.408 250.592C554.952 250.129 554.765 249.482 554.847 248.653C554.971 247.827 555.074 247 555.156 246.171C555.238 245.342 555.341 244.515 555.465 243.689C554.073 245.477 552.551 247.106 550.898 248.575C549.796 249.554 548.545 250.351 547.144 250.966C545.739 251.622 544.294 252.044 542.81 252.232C541.367 252.424 539.908 252.363 538.432 252.049C536.956 251.735 535.618 251.079 534.419 250.081ZM568.318 226.813C568.438 226.029 568.786 225.478 569.362 225.158C569.942 224.797 570.543 224.647 571.165 224.709C571.787 224.77 572.305 225.031 572.72 225.491C573.181 225.913 573.351 226.517 573.232 227.3C573.207 227.549 573.16 227.816 573.089 228.103C573.065 228.351 573.04 228.6 573.015 228.849C574.408 228.317 575.852 227.895 577.349 227.583C578.891 227.233 580.394 227.068 581.857 227.088C583.362 227.112 584.78 227.378 586.112 227.887C587.489 228.358 588.708 229.149 589.77 230.259C590.297 230.856 590.489 231.461 590.344 232.075C590.241 232.693 589.939 233.207 589.437 233.618C588.982 233.991 588.416 234.208 587.74 234.266C587.068 234.283 586.446 234.012 585.874 233.453C585.455 233.035 584.963 232.714 584.399 232.49C583.876 232.271 583.281 232.149 582.614 232.125C581.992 232.063 581.343 232.062 580.667 232.12C580.033 232.183 579.417 232.268 578.82 232.377C576.553 232.864 574.408 233.593 572.386 234.565C572.267 236.605 572.19 238.649 572.154 240.697C572.152 242.413 572.122 244.19 572.065 246.027C572.013 247.822 572.197 249.557 572.617 251.231C572.792 252.002 572.668 252.618 572.245 253.079C571.86 253.585 571.348 253.89 570.71 253.994C570.113 254.102 569.495 253.999 568.856 253.685C568.259 253.374 567.873 252.834 567.698 252.063C567.461 251.076 567.33 250.079 567.304 249.072C567.278 248.064 567.253 247.057 567.227 246.049C567.239 245.087 567.23 244.123 567.2 243.157C567.216 242.154 567.229 241.171 567.241 240.21C567.256 237.95 567.331 235.717 567.466 233.512C567.646 231.268 567.93 229.036 568.318 226.813ZM619.794 235.31C619.481 238.88 619.376 242.47 619.479 246.081C619.581 249.692 619.833 253.276 620.234 256.833C620.322 257.637 620.113 258.266 619.607 258.718C619.139 259.216 618.607 259.519 618.01 259.627C617.413 259.736 616.837 259.637 616.281 259.33C615.725 259.024 615.403 258.469 615.315 257.664C615.052 255.252 614.847 252.886 614.7 250.569C614.514 250.76 614.348 250.953 614.203 251.148C614.062 251.301 613.899 251.473 613.712 251.664C612.784 252.577 611.744 253.353 610.592 253.993C609.444 254.591 608.228 255.035 606.943 255.327C605.703 255.58 604.439 255.664 603.149 255.578C601.86 255.492 600.61 255.222 599.399 254.767C597.263 253.927 595.691 252.682 594.682 251.033C593.673 249.384 593.016 247.56 592.712 245.562C592.412 243.522 592.325 241.441 592.452 239.318C592.583 237.154 592.718 235.158 592.857 233.329C592.936 232.541 593.242 231.985 593.777 231.662C594.315 231.296 594.896 231.145 595.517 231.206C596.139 231.268 596.679 231.531 597.135 231.995C597.637 232.421 597.87 233.031 597.833 233.823C597.71 235.485 597.564 237.166 597.396 238.866C597.269 240.571 597.297 242.185 597.48 243.711C597.564 244.557 597.679 245.301 597.824 245.943C597.974 246.544 598.244 247.199 598.634 247.908C598.813 248.219 598.9 248.395 598.896 248.436C598.933 248.482 598.991 248.529 599.07 248.579C599.643 249.138 600.027 249.49 600.222 249.635C600.421 249.739 600.661 249.847 600.943 249.958C602.635 250.629 604.402 250.762 606.242 250.358C608.087 249.913 609.626 248.956 610.861 247.487C611.581 246.554 612.14 245.563 612.537 244.513C612.976 243.468 613.311 242.413 613.542 241.347C613.778 240.24 613.972 239.129 614.124 238.013C614.322 236.86 614.56 235.733 614.836 234.63C614.96 233.386 615.351 232.608 616.01 232.296C616.714 231.948 617.413 231.87 618.106 232.065C618.508 232.23 618.825 232.408 619.057 232.599L619.512 233.083C619.894 233.875 619.988 234.617 619.794 235.31ZM629.896 276.57C629.859 277.362 629.574 277.92 629.039 278.244C628.542 278.613 627.982 278.767 627.36 278.706C626.738 278.644 626.178 278.379 625.68 277.911C625.178 277.484 624.946 276.875 624.982 276.083C625.184 269.404 625.571 262.764 626.142 256.163C626.717 249.521 627.188 242.868 627.556 236.205C627.066 235.235 627.11 234.36 627.69 233.58C627.694 233.12 627.694 232.701 627.689 232.324C627.73 231.91 627.753 231.472 627.757 231.012C627.789 230.262 628.052 229.722 628.545 229.394C629.042 229.025 629.583 228.848 630.168 228.864C630.794 228.885 631.358 229.108 631.86 229.535C632.366 229.92 632.646 230.471 632.701 231.188C633.439 230.926 634.133 230.681 634.784 230.453C635.476 230.228 636.189 230.006 636.922 229.786C637.527 229.594 638.193 229.43 638.918 229.293C639.648 229.114 640.392 228.999 641.151 228.949C641.909 228.898 642.641 228.908 643.346 228.978C644.092 229.052 644.764 229.244 645.361 229.555C646.556 230.176 647.498 231.023 648.187 232.096C648.917 233.173 649.493 234.34 649.912 235.596C650.295 236.806 650.654 238.035 650.991 239.283C651.332 240.489 651.462 241.716 651.38 242.964C651.294 244.254 650.988 245.438 650.462 246.516C649.937 247.594 649.255 248.553 648.419 249.391C647.623 250.233 646.693 250.957 645.628 251.564C644.563 252.17 643.446 252.666 642.277 253.053C641.021 253.472 639.73 253.826 638.404 254.113C637.077 254.4 635.744 254.54 634.405 254.533C633.816 254.558 633.259 254.482 632.732 254.304C632.247 254.13 631.787 253.917 631.351 253.665C631.051 257.529 630.756 261.352 630.465 265.133C630.215 268.919 630.025 272.731 629.896 276.57ZM632.543 236.574C632.437 238.49 632.31 240.403 632.163 242.314C632.019 244.184 631.894 246.077 631.788 247.993C632.02 248.183 632.253 248.374 632.485 248.564C632.721 248.713 632.976 248.885 633.25 249.08C633.561 249.32 633.819 249.471 634.022 249.533C634.229 249.554 634.565 249.545 635.029 249.507C635.962 249.391 636.895 249.274 637.827 249.157C638.764 248.999 639.668 248.753 640.538 248.421C641.363 248.126 642.149 247.806 642.895 247.461C643.645 247.075 644.345 246.558 644.995 245.911C645.414 245.492 645.755 245.002 646.02 244.442C646.289 243.841 646.417 243.184 646.404 242.471C646.445 241.637 646.322 240.767 646.035 239.859C645.79 238.955 645.538 238.114 645.281 237.335C645.11 236.941 644.94 236.547 644.77 236.154C644.645 235.723 644.475 235.329 644.259 234.972C643.923 234.562 643.655 234.305 643.456 234.202C642.303 234.004 641.281 233.965 640.39 234.086C639.499 234.207 638.599 234.411 637.691 234.698C636.829 234.947 635.963 235.238 635.092 235.571C634.222 235.903 633.372 236.238 632.543 236.574ZM659.376 279.494C659.34 280.286 659.054 280.844 658.519 281.168C658.022 281.537 657.463 281.691 656.841 281.629C656.219 281.568 655.659 281.303 655.161 280.835C654.659 280.408 654.426 279.799 654.463 279.007C654.665 272.328 655.051 265.687 655.622 259.087C656.197 252.444 656.668 245.792 657.036 239.129C656.546 238.159 656.591 237.284 657.171 236.504C657.174 236.044 657.174 235.625 657.17 235.248C657.211 234.833 657.233 234.396 657.237 233.936C657.269 233.185 657.532 232.646 658.025 232.318C658.523 231.949 659.064 231.772 659.648 231.788C660.274 231.808 660.838 232.032 661.34 232.458C661.846 232.844 662.127 233.395 662.181 234.112C662.919 233.85 663.613 233.605 664.264 233.376C664.956 233.152 665.669 232.93 666.403 232.709C667.008 232.518 667.673 232.354 668.399 232.216C669.128 232.037 669.872 231.923 670.631 231.872C671.39 231.822 672.121 231.832 672.826 231.902C673.573 231.976 674.244 232.168 674.842 232.478C676.036 233.099 676.978 233.946 677.667 235.02C678.398 236.097 678.973 237.264 679.393 238.52C679.775 239.73 680.135 240.959 680.472 242.207C680.813 243.413 680.942 244.64 680.86 245.888C680.774 247.177 680.468 248.361 679.943 249.44C679.417 250.518 678.736 251.476 677.899 252.315C677.104 253.157 676.173 253.881 675.108 254.487C674.043 255.093 672.926 255.59 671.758 255.976C670.502 256.396 669.211 256.75 667.884 257.037C666.558 257.324 665.225 257.464 663.886 257.457C663.297 257.482 662.739 257.406 662.212 257.228C661.727 257.054 661.267 256.841 660.831 256.588C660.532 260.453 660.236 264.276 659.945 268.057C659.695 271.843 659.506 275.655 659.376 279.494ZM662.024 239.498C661.918 241.413 661.791 243.327 661.643 245.238C661.499 247.108 661.374 249.001 661.268 250.916C661.501 251.107 661.733 251.297 661.965 251.488C662.202 251.637 662.457 251.809 662.731 252.004C663.042 252.244 663.299 252.395 663.502 252.457C663.709 252.477 664.045 252.469 664.51 252.431C665.442 252.314 666.375 252.197 667.308 252.081C668.245 251.922 669.148 251.677 670.019 251.345C670.844 251.05 671.629 250.73 672.375 250.385C673.125 249.999 673.825 249.482 674.476 248.835C674.894 248.416 675.236 247.926 675.501 247.366C675.77 246.765 675.898 246.108 675.885 245.394C675.925 244.561 675.802 243.691 675.516 242.783C675.27 241.879 675.019 241.038 674.761 240.258C674.591 239.865 674.42 239.471 674.25 239.077C674.125 238.646 673.955 238.252 673.739 237.896C673.403 237.486 673.135 237.229 672.936 237.126C671.783 236.928 670.761 236.889 669.87 237.01C668.979 237.131 668.079 237.335 667.172 237.622C666.309 237.871 665.443 238.162 664.573 238.494C663.702 238.827 662.853 239.161 662.024 239.498ZM684.881 257.906C685.058 256.123 685.361 254.332 685.791 252.532C686.299 250.363 686.805 248.215 687.309 246.088C687.818 243.919 688.162 241.713 688.343 239.47C688.421 238.682 688.729 238.106 689.268 237.74C689.806 237.375 690.387 237.223 691.009 237.285C691.631 237.347 692.191 237.612 692.689 238.08C693.186 238.548 693.396 239.176 693.318 239.963C694.948 239.999 696.488 240.089 697.939 240.233C699.594 240.439 700.956 241.056 702.026 242.083C703.097 243.111 703.846 244.42 704.275 246.012C704.632 247.471 704.779 248.951 704.714 250.452C704.649 251.953 704.563 253.452 704.456 254.948C704.288 257.067 704.14 259.188 704.014 261.311C703.891 263.392 703.725 265.49 703.515 267.605C703.433 268.434 703.104 269.008 702.528 269.328C701.989 269.693 701.409 269.845 700.787 269.784C700.206 269.726 699.667 269.463 699.169 268.995C698.709 268.573 698.519 267.947 698.602 267.117C698.799 265.127 698.951 263.174 699.057 261.259C699.205 259.347 699.336 257.392 699.45 255.394C699.474 254.308 699.542 253.205 699.653 252.085C699.809 250.928 699.831 249.863 699.719 248.889C699.652 248.296 699.577 247.786 699.493 247.359C699.414 246.891 699.229 246.433 698.939 245.985C698.872 245.811 698.7 245.647 698.422 245.494C698.186 245.345 697.964 245.26 697.757 245.24C697.135 245.178 696.55 245.162 696.003 245.191C695.456 245.221 694.883 245.29 694.287 245.398C694.03 245.456 693.773 245.515 693.516 245.573C693.259 245.631 693.02 245.712 692.801 245.816C692.238 247.268 691.785 248.667 691.442 250.015C691.145 251.325 690.845 252.656 690.544 254.008C690.32 254.991 690.137 255.999 689.993 257.031C689.894 258.026 689.754 259.017 689.572 260.004C689.432 260.995 689.209 261.978 688.903 262.952C688.638 263.931 688.233 264.854 687.686 265.721C687.243 266.389 686.706 266.733 686.076 266.755C685.442 266.817 684.872 266.656 684.366 266.271C683.897 265.931 683.548 265.436 683.32 264.785C683.133 264.139 683.24 263.479 683.641 262.807C684.089 262.098 684.376 261.31 684.504 260.444C684.632 259.577 684.758 258.731 684.881 257.906ZM714.371 265.164C713.023 264.402 711.988 263.441 711.266 262.281C710.589 261.084 710.151 259.805 709.95 258.445C709.792 257.09 709.845 255.713 710.109 254.316C710.377 252.877 710.805 251.516 711.393 250.235C711.869 249.235 712.39 248.198 712.957 247.124C713.566 246.054 714.249 245.075 715.007 244.187C715.765 243.299 716.633 242.569 717.611 241.996C718.593 241.381 719.717 241.032 720.981 240.948C722.287 240.868 723.578 240.934 724.856 241.144C726.178 241.317 727.472 241.571 728.737 241.906C729.309 242.046 729.855 242.247 730.373 242.508C730.896 242.727 731.416 242.967 731.935 243.228C732.038 242.61 732.359 242.119 732.897 241.753C733.477 241.392 734.058 241.24 734.638 241.298C735.343 241.368 735.878 241.672 736.243 242.211C736.654 242.712 736.868 243.299 736.885 243.97C736.904 245.898 736.797 247.814 736.567 249.717C736.378 251.624 736.126 253.525 735.813 255.42C735.541 257.319 735.269 259.218 734.996 261.117C734.766 263.021 734.597 264.93 734.491 266.846C734.454 267.637 734.146 268.214 733.566 268.575C733.031 268.899 732.453 269.03 731.831 268.968C731.209 268.907 730.647 268.663 730.145 268.236C729.689 267.772 729.479 267.144 729.516 266.352C727.053 267.113 724.487 267.445 721.817 267.347C719.151 267.208 716.669 266.481 714.371 265.164ZM716.145 251.711C715.822 252.433 715.51 253.26 715.208 254.193C714.906 255.126 714.754 256.032 714.75 256.911C714.747 257.79 714.936 258.626 715.318 259.417C715.704 260.167 716.401 260.739 717.409 261.132C719.458 262.005 721.554 262.401 723.698 262.321C725.882 262.244 727.967 261.697 729.952 260.68C730.32 258.665 730.64 256.708 730.912 254.809C731.225 252.914 731.458 250.99 731.61 249.037C730.95 248.511 730.263 248.045 729.55 247.639C728.882 247.196 728.119 246.869 727.261 246.658C726.402 246.448 725.478 246.272 724.487 246.132C723.541 245.955 722.608 245.862 721.688 245.855C721.605 245.846 721.371 245.886 720.985 245.973C720.645 246.023 720.452 246.067 720.407 246.104C719.972 246.271 719.566 246.565 719.189 246.988C718.576 247.681 718.019 248.443 717.518 249.272C717.021 250.06 716.563 250.873 716.145 251.711ZM745.906 270.804C745.305 270.954 744.669 270.828 743.997 270.426C743.366 270.029 743.042 269.494 743.025 268.822C742.807 265.116 742.791 261.472 742.979 257.89C743.212 254.27 743.51 250.636 743.872 246.987C743.934 246.365 744.149 245.884 744.517 245.544C744.886 245.203 745.305 244.994 745.773 244.914C746.242 244.835 746.72 244.862 747.21 244.994C747.699 245.126 748.093 245.375 748.392 245.739C749.424 245.046 750.507 244.463 751.643 243.989C752.779 243.516 753.894 243.249 754.988 243.19C756.128 243.094 757.221 243.265 758.266 243.704C759.315 244.101 760.267 244.845 761.122 245.934C761.828 246.842 762.424 247.801 762.91 248.812C763.4 249.782 763.821 250.808 764.175 251.89C764.953 250.376 765.967 249.011 767.219 247.795C768.47 246.579 769.989 245.83 771.775 245.546C773.093 245.342 774.101 245.526 774.798 246.097C775.499 246.627 776.132 247.423 776.697 248.484C777.299 249.59 777.837 250.711 778.31 251.847C778.825 252.987 779.297 254.143 779.725 255.316C780.153 256.489 780.56 257.66 780.947 258.829C781.333 259.997 781.722 261.146 782.112 262.273C782.574 263.533 782.952 264.785 783.247 266.028C783.588 267.235 783.755 268.507 783.748 269.846C783.761 270.559 783.453 271.136 782.823 271.576C782.239 271.979 781.635 272.149 781.013 272.087C780.309 272.018 779.751 271.732 779.34 271.231C778.975 270.692 778.785 270.066 778.772 269.353C778.788 268.35 778.613 267.369 778.248 266.412C777.928 265.417 777.605 264.443 777.281 263.49C776.92 262.491 776.56 261.471 776.203 260.431C775.887 259.395 775.548 258.377 775.187 257.378C774.825 256.379 774.422 255.376 773.978 254.369C773.575 253.366 773.128 252.38 772.638 251.41C772.568 251.277 772.497 251.145 772.426 251.012C772.356 250.88 772.285 250.747 772.215 250.614C771.34 250.988 770.696 251.364 770.282 251.742C769.867 252.119 769.459 252.644 769.058 253.316C768.706 253.909 768.391 254.548 768.114 255.232C767.882 255.879 767.669 256.549 767.475 257.241C767.095 258.544 766.77 259.914 766.502 261.353C766.312 262.423 766.209 263.459 766.194 264.463C766.219 265.47 766.075 266.503 765.761 267.56C765.571 268.211 765.127 268.67 764.431 268.936C763.776 269.206 763.146 269.227 762.541 268.999C761.977 268.776 761.57 268.442 761.321 267.999C761.117 267.518 761.003 266.984 760.977 266.395C760.943 265.052 760.892 263.665 760.825 262.234C760.757 260.804 760.626 259.388 760.43 257.987C760.238 256.545 759.936 255.154 759.524 253.815C759.158 252.439 758.616 251.15 757.898 249.948C757.392 249.144 756.84 248.587 756.242 248.277C755.687 247.97 754.951 248.002 754.035 248.372C753.032 248.775 752.039 249.283 751.057 249.898C750.075 250.512 749.188 251.22 748.397 252.021C748.175 254.678 747.995 257.34 747.856 260.006C747.763 262.635 747.794 265.276 747.95 267.929C747.963 268.642 747.796 269.275 747.448 269.826C747.146 270.341 746.632 270.667 745.906 270.804ZM788.187 268.151C788.364 266.368 788.667 264.577 789.097 262.777C789.605 260.608 790.111 258.46 790.615 256.333C791.123 254.164 791.468 251.958 791.648 249.715C791.726 248.928 792.035 248.351 792.574 247.986C793.112 247.62 793.692 247.469 794.314 247.53C794.936 247.592 795.496 247.857 795.994 248.325C796.492 248.793 796.702 249.421 796.624 250.209C798.253 250.245 799.794 250.335 801.245 250.479C802.899 250.685 804.262 251.301 805.332 252.329C806.403 253.356 807.152 254.665 807.58 256.257C807.938 257.716 808.085 259.196 808.019 260.697C807.954 262.198 807.868 263.697 807.762 265.194C807.594 267.312 807.446 269.433 807.319 271.556C807.197 273.637 807.03 275.735 806.821 277.85C806.738 278.679 806.409 279.254 805.833 279.573C805.295 279.939 804.714 280.091 804.092 280.029C803.512 279.971 802.973 279.709 802.475 279.24C802.014 278.818 801.825 278.192 801.907 277.363C802.105 275.373 802.257 273.42 802.363 271.504C802.51 269.593 802.642 267.638 802.756 265.639C802.78 264.553 802.847 263.45 802.958 262.331C803.115 261.174 803.137 260.108 803.024 259.134C802.957 258.541 802.882 258.031 802.799 257.604C802.72 257.136 802.535 256.678 802.245 256.23C802.178 256.056 802.006 255.893 801.728 255.739C801.492 255.59 801.27 255.506 801.062 255.485C800.44 255.423 799.856 255.407 799.309 255.437C798.761 255.466 798.189 255.535 797.592 255.643C797.335 255.702 797.078 255.76 796.821 255.818C796.564 255.876 796.326 255.957 796.106 256.061C795.544 257.513 795.091 258.912 794.748 260.26C794.45 261.571 794.151 262.902 793.849 264.253C793.626 265.236 793.443 266.244 793.298 267.276C793.2 268.271 793.059 269.262 792.878 270.249C792.738 271.24 792.515 272.223 792.209 273.198C791.944 274.176 791.538 275.099 790.992 275.966C790.549 276.634 790.012 276.979 789.382 277C788.748 277.063 788.178 276.901 787.671 276.516C787.203 276.177 786.854 275.681 786.625 275.031C786.438 274.384 786.546 273.725 786.947 273.053C787.394 272.343 787.682 271.555 787.81 270.689C787.937 269.822 788.063 268.976 788.187 268.151Z"
            fill="black"
          />
        </svg>