<svg width="140" height="140" viewBox="0 0 140 140" fill="none" xmlns="http://www.w3.org/2000/svg">
<g id="clarity:talk-bubbles-solid" clip-path="url(#clip0_32_607)">
<path id="Vector" d="M31.1111 73.8889V42.7778H19.4444C16.3502 42.7778 13.3828 44.0069 11.1949 46.1949C9.00693 48.3828 7.77777 51.3502 7.77777 54.4444V124.444C7.78356 125.167 7.99036 125.873 8.37501 126.484C8.75966 127.096 9.30695 127.588 9.95555 127.906C10.5804 128.19 11.2694 128.303 11.9524 128.235C12.6354 128.167 13.2882 127.919 13.8444 127.517L33.8722 112.778H86.1389C87.6128 112.821 89.08 112.562 90.4495 112.015C91.8191 111.469 93.0619 110.647 94.1009 109.601C95.1399 108.554 95.9531 107.306 96.49 105.933C97.0269 104.559 97.2761 103.09 97.2222 101.617V97.2222H54.4444C48.2561 97.2222 42.3211 94.7639 37.9453 90.388C33.5694 86.0122 31.1111 80.0773 31.1111 73.8889Z" fill="white"/>
<path id="Vector_2" d="M120.556 15.5556H54.4444C51.3502 15.5556 48.3828 16.7847 46.1949 18.9726C44.0069 21.1606 42.7778 24.128 42.7778 27.2222V73.8889C42.7778 76.9831 44.0069 79.9505 46.1949 82.1385C48.3828 84.3264 51.3502 85.5556 54.4444 85.5556H107.139L125.728 99.9833C126.28 100.392 126.931 100.647 127.615 100.722C128.298 100.797 128.988 100.69 129.617 100.411C130.278 100.096 130.838 99.6001 131.23 98.9809C131.622 98.3616 131.831 97.6441 131.833 96.9111V27.2222C131.835 24.1942 130.659 21.2842 128.555 19.1071C126.45 16.9301 123.582 15.6565 120.556 15.5556Z" fill="white"/>
</g>
<defs>
<clipPath id="clip0_32_607">
<rect width="140" height="140" fill="white"/>
</clipPath>
</defs>
</svg>
