<svg width="94" height="87" viewBox="0 0 94 87" fill="none" xmlns="http://www.w3.org/2000/svg">
<circle cx="22.7537" cy="63.7537" r="22.5" transform="rotate(-0.649679 22.7537 63.7537)" fill="#E4E9EB"/>
<circle cx="47.7537" cy="22.7537" r="22.5" transform="rotate(-0.649679 47.7537 22.7537)" fill="#E51238"/>
<circle cx="70.7537" cy="63.7537" r="22.5" transform="rotate(-0.649679 70.7537 63.7537)" fill="#001A52"/>
<circle cx="70.7537" cy="63.7537" r="22.5" transform="rotate(-0.649679 70.7537 63.7537)" fill="black" fill-opacity="0.2"/>
<g clip-path="url(#clip0_8_254)">
<path d="M62.8889 64.3464V57.4575H60.3056C59.6204 57.4575 58.9633 57.7297 58.4789 58.2142C57.9944 58.6986 57.7222 59.3557 57.7222 60.0409V75.5409C57.7235 75.7008 57.7693 75.8572 57.8545 75.9925C57.9396 76.1279 58.0608 76.2369 58.2045 76.3072C58.3428 76.3702 58.4954 76.3953 58.6466 76.3802C58.7979 76.3651 58.9424 76.3102 59.0656 76.2211L63.5003 72.9575H75.0736C75.4 72.9672 75.7249 72.9097 76.0281 72.7887C76.3314 72.6677 76.6066 72.4857 76.8366 72.254C77.0667 72.0223 77.2468 71.7459 77.3656 71.4418C77.4845 71.1377 77.5397 70.8124 77.5278 70.4861V69.5131H68.0556C66.6853 69.5131 65.3711 68.9687 64.4022 67.9998C63.4332 67.0309 62.8889 65.7167 62.8889 64.3464Z" fill="white"/>
<path d="M82.6945 51.4297H68.0556C67.3704 51.4297 66.7133 51.7019 66.2289 52.1863C65.7444 52.6708 65.4722 53.3279 65.4722 54.013V64.3464C65.4722 65.0315 65.7444 65.6886 66.2289 66.173C66.7133 66.6575 67.3704 66.9297 68.0556 66.9297H79.7236L83.8397 70.1244C83.9621 70.2149 84.1062 70.2713 84.2575 70.2879C84.4088 70.3046 84.5617 70.2808 84.7008 70.2191C84.8474 70.1493 84.9712 70.0396 85.058 69.9024C85.1449 69.7653 85.1912 69.6064 85.1917 69.4441V54.013C85.192 53.3425 84.9317 52.6982 84.4657 52.2161C83.9997 51.734 83.3646 51.452 82.6945 51.4297Z" fill="white"/>
</g>
<defs>
<clipPath id="clip0_8_254">
<rect width="31" height="31" fill="white" transform="translate(56 47.9854)"/>
</clipPath>
</defs>
</svg>
