<svg width="94" height="87" viewBox="0 0 94 87" fill="none" xmlns="http://www.w3.org/2000/svg">
<circle cx="22.7537" cy="63.7537" r="22.5" transform="rotate(-0.649679 22.7537 63.7537)" fill="#E4E9EB"/>
<path d="M11.5361 71.1945C12.1301 73.026 13.9355 74.1948 15.8619 74.1948H15.9375C16.1142 75.0573 16.5833 75.8324 17.2655 76.3891C17.9477 76.9458 18.8011 77.2499 19.6816 77.25C20.31 77.25 20.8971 77.0919 21.4169 76.8196C21.6338 76.7007 21.8143 76.525 21.939 76.3114C22.0637 76.0978 22.128 75.8543 22.125 75.6069V51.1621C22.1278 50.8471 22.022 50.5408 21.8254 50.2946C21.6288 50.0484 21.3535 49.8775 21.0456 49.8105C20.3558 49.6765 19.641 49.7737 19.012 50.0869C17.989 50.5764 17.3895 51.6695 17.3895 52.8066V52.8823C16.6239 52.726 15.8288 52.8083 15.1115 53.118C14.3941 53.4278 13.789 53.9501 13.3778 54.6144C12.9665 55.2788 12.7689 56.0534 12.8116 56.8336C12.8543 57.6138 13.1352 58.3621 13.6165 58.9776C12.5386 59.1465 11.5566 59.6951 10.8476 60.5244C10.1386 61.3536 9.74931 62.409 9.75 63.5C9.75 65.1198 10.5901 66.5401 11.8579 67.3665C11.2666 68.4266 11.0728 69.7673 11.5361 71.1945ZM33.3835 58.9776C33.8648 58.3621 34.1457 57.6138 34.1884 56.8336C34.2311 56.0534 34.0335 55.2788 33.6222 54.6144C33.211 53.9501 32.6059 53.4278 31.8885 53.118C31.1712 52.8083 30.3761 52.726 29.6105 52.8823V52.8066C29.6105 51.6709 29.0096 50.5764 27.9866 50.0869C27.3581 49.7736 26.6437 49.6764 25.9544 49.8105C25.6467 49.8777 25.3715 50.0487 25.1749 50.2949C24.9784 50.541 24.8725 50.8472 24.875 51.1621V75.6055C24.875 76.1074 25.139 76.5845 25.5845 76.8183C26.1043 77.0919 26.69 77.25 27.3184 77.25C28.1991 77.2498 29.0527 76.9455 29.7349 76.3886C30.4171 75.8316 30.886 75.0562 31.0625 74.1934H31.1395C33.0645 74.1934 34.8713 73.0246 35.4653 71.1931C35.9286 69.7659 35.7348 68.4253 35.1435 67.3651C35.7893 66.9479 36.3204 66.3756 36.6883 65.7005C37.0563 65.0254 37.2494 64.2689 37.25 63.5C37.2507 62.409 36.8614 61.3536 36.1524 60.5244C35.4434 59.6951 34.4614 59.1465 33.3835 58.9776Z" fill="black"/>
<circle cx="47.7537" cy="22.7537" r="22.5" transform="rotate(-0.649679 47.7537 22.7537)" fill="#E51238"/>
<circle cx="70.7537" cy="63.7537" r="22.5" transform="rotate(-0.649679 70.7537 63.7537)" fill="#001238"/>
</svg>
