<svg width="144" height="144" viewBox="0 0 144 144" fill="none" xmlns="http://www.w3.org/2000/svg">
<g id="bxs:brain">
<path id="Vector" d="M19.794 105.576C22.386 113.568 30.264 118.668 38.67 118.668H39C39.7712 122.432 41.8181 125.814 44.7949 128.243C47.7718 130.672 51.4959 131.999 55.338 132C58.08 132 60.642 131.31 62.91 130.122C63.8565 129.603 64.6441 128.836 65.1884 127.904C65.7327 126.972 66.0132 125.909 66 124.83V18.162C66.0121 16.7874 65.5504 15.4506 64.6926 14.3764C63.8348 13.3022 62.6332 12.5563 61.29 12.264C58.2799 11.6793 55.1609 12.1032 52.416 13.47C47.952 15.606 45.336 20.376 45.336 25.338V25.668C41.9953 24.9862 38.5258 25.3452 35.3955 26.6968C32.2653 28.0484 29.6248 30.3275 27.8302 33.2266C26.0357 36.1257 25.1734 39.5055 25.3597 42.91C25.546 46.3145 26.7719 49.58 28.872 52.266C24.1685 53.003 19.8833 55.3967 16.7894 59.0153C13.6956 62.6339 11.997 67.2391 12 72C12 79.068 15.666 85.266 21.198 88.872C18.618 93.498 17.772 99.348 19.794 105.576ZM115.128 52.266C117.228 49.58 118.454 46.3145 118.64 42.91C118.827 39.5055 117.964 36.1257 116.17 33.2266C114.375 30.3275 111.735 28.0484 108.604 26.6968C105.474 25.3452 102.005 24.9862 98.664 25.668V25.338C98.664 20.382 96.042 15.606 91.578 13.47C88.8353 12.1028 85.7182 11.6789 82.71 12.264C81.3673 12.5573 80.1663 13.3035 79.3087 14.3775C78.4511 15.4514 77.989 16.7877 78 18.162V124.824C78 127.014 79.152 129.096 81.096 130.116C83.364 131.31 85.92 132 88.662 132C92.505 131.999 96.2298 130.671 99.2067 128.241C102.184 125.811 104.23 122.427 105 118.662H105.336C113.736 118.662 121.62 113.562 124.212 105.57C126.234 99.342 125.388 93.492 122.808 88.866C125.626 87.0453 127.944 84.548 129.549 81.6021C131.155 78.6561 131.997 75.3551 132 72C132.003 67.2391 130.304 62.6339 127.211 59.0153C124.117 55.3967 119.831 53.003 115.128 52.266Z" fill="black"/>
</g>
</svg>
