<svg width="117" height="129" viewBox="0 0 117 129" fill="none" xmlns="http://www.w3.org/2000/svg">
<path id="Vector" d="M6.50002 129C4.65835 129 3.11352 128.381 1.86552 127.142C0.617522 125.904 -0.00431084 124.373 2.24914e-05 122.55V96.75C2.24914e-05 93.2025 1.27402 90.1645 3.82202 87.6361C6.37002 85.1077 9.42935 83.8457 13 83.85H104C107.575 83.85 110.636 85.1142 113.184 87.6426C115.732 90.171 117.004 93.2068 117 96.75V122.55C117 124.377 116.376 125.91 115.128 127.149C113.88 128.387 112.337 129.004 110.5 129H6.50002ZM13 70.95V51.6C13 48.0525 14.274 45.0145 16.822 42.4861C19.37 39.9577 22.4293 38.6957 26 38.7H52V29.3475C50.05 28.0575 48.4792 26.4987 47.2875 24.6712C46.0958 22.8437 45.5 20.64 45.5 18.06C45.5 16.4475 45.825 14.8608 46.475 13.2999C47.125 11.739 48.1 10.3157 49.4 9.03L58.5 0L67.6 9.03C68.9 10.32 69.875 11.7433 70.525 13.2999C71.175 14.8565 71.5 16.4432 71.5 18.06C71.5 20.64 70.9042 22.8437 69.7125 24.6712C68.5208 26.4987 66.95 28.0575 65 29.3475V38.7H91C94.575 38.7 97.6365 39.962 100.184 42.4861C102.732 45.0102 104.004 48.0482 104 51.6V70.95H13Z" fill="white"/>
</svg>
