<svg width="94" height="87" viewBox="0 0 94 87" fill="none" xmlns="http://www.w3.org/2000/svg">
<circle cx="22.7537" cy="63.7537" r="22.5" transform="rotate(-0.649679 22.7537 63.7537)" fill="#E4E9EB"/>
<circle cx="47.7537" cy="22.7537" r="22.5" transform="rotate(-0.649679 47.7537 22.7537)" fill="#E51238"/>
<path d="M37.3333 35.826C36.9556 35.826 36.6387 35.698 36.3827 35.442C36.1267 35.186 35.9991 34.8695 36 34.4926V29.1593C36 28.426 36.2613 27.798 36.784 27.2753C37.3067 26.7526 37.9342 26.4917 38.6667 26.4926H57.3333C58.0667 26.4926 58.6947 26.754 59.2173 27.2766C59.74 27.7993 60.0009 28.4269 60 29.1593V34.4926C60 34.8704 59.872 35.1873 59.616 35.4433C59.36 35.6993 59.0436 35.8269 58.6667 35.826H37.3333ZM38.6667 23.826V19.826C38.6667 19.0926 38.928 18.4646 39.4507 17.942C39.9733 17.4193 40.6009 17.1584 41.3333 17.1593H46.6667V15.226C46.2667 14.9593 45.9444 14.6371 45.7 14.2593C45.4556 13.8815 45.3333 13.426 45.3333 12.8926C45.3333 12.5593 45.4 12.2313 45.5333 11.9086C45.6667 11.586 45.8667 11.2917 46.1333 11.026L48 9.1593L49.8667 11.026C50.1333 11.2926 50.3333 11.5869 50.4667 11.9086C50.6 12.2304 50.6667 12.5584 50.6667 12.8926C50.6667 13.426 50.5445 13.8815 50.3 14.2593C50.0556 14.6371 49.7333 14.9593 49.3333 15.226V17.1593H54.6667C55.4 17.1593 56.028 17.4202 56.5507 17.942C57.0733 18.4637 57.3342 19.0917 57.3333 19.826V23.826H38.6667Z" fill="white"/>
<circle cx="70.7537" cy="63.7537" r="22.5" transform="rotate(-0.649679 70.7537 63.7537)" fill="#001A52"/>
<circle cx="70.7537" cy="63.7537" r="22.5" transform="rotate(-0.649679 70.7537 63.7537)" fill="black" fill-opacity="0.2"/>
</svg>
